<svg width="1000" height="1000" viewBox="0 0 1000 1000" fill="none" xmlns="http://www.w3.org/2000/svg">
<g clip-path="url(#clip0_1436_7856)">
<path d="M225 544.9H245.403L253.436 523.413H290.608L298.705 544.9H320.319L285.061 455H260.259L225 544.9ZM259.111 507.027L271.863 473.044H271.99L284.87 507.027H259.111Z" fill="#121212" style="fill:#121212;fill:color(display-p3 0.0706 0.0706 0.0706);fill-opacity:1;"/>
<path d="M356.565 544.9H389.848C394.736 544.9 399.369 544.539 403.747 543.816C408.168 543.093 412.249 541.967 415.989 540.437C419.772 538.864 423.173 536.888 426.19 534.507C429.208 532.127 431.78 529.279 433.905 525.964C436.031 522.648 437.667 518.844 438.815 514.551C439.962 510.258 440.536 505.455 440.536 500.141V500.014C440.536 494.573 439.962 489.685 438.815 485.349C437.667 481.014 436.031 477.188 433.905 473.873C431.78 470.515 429.208 467.645 426.19 465.265C423.173 462.885 419.772 460.93 415.989 459.399C412.249 457.869 408.168 456.764 403.747 456.084C399.369 455.361 394.736 455 389.848 455H356.565V544.9ZM376.65 528.578V471.322H389.529C392.717 471.322 395.671 471.535 398.391 471.96C401.112 472.385 403.577 473.065 405.788 474C407.998 474.935 409.953 476.168 411.653 477.698C413.396 479.186 414.841 480.992 415.989 483.118C417.136 485.243 418.008 487.708 418.603 490.514C419.198 493.319 419.496 496.486 419.496 500.014V500.141C419.496 503.669 419.198 506.836 418.603 509.641C418.008 512.404 417.136 514.848 415.989 516.973C414.841 519.056 413.396 520.842 411.653 522.329C409.953 523.817 407.998 525.029 405.788 525.964C403.577 526.856 401.112 527.515 398.391 527.94C395.671 528.365 392.717 528.578 389.529 528.578H376.65Z" fill="#121212" style="fill:#121212;fill:color(display-p3 0.0706 0.0706 0.0706);fill-opacity:1;"/>
<path d="M481.444 544.9H547.561V528.259H501.527V507.856H542.78V491.279H501.527V471.641H547.243V455H481.444V544.9Z" fill="#121212" style="fill:#121212;fill:color(display-p3 0.0706 0.0706 0.0706);fill-opacity:1;"/>
<path d="M589.261 544.9H609.345V513.849H626.56C632.681 513.849 638.079 513.276 642.755 512.128C647.473 510.98 651.426 509.216 654.614 506.836C657.802 504.413 660.225 501.353 661.883 497.655C663.54 493.957 664.369 489.579 664.369 484.52V484.393C664.369 479.335 663.519 474.957 661.819 471.258C660.161 467.561 657.717 464.521 654.487 462.141C651.256 459.718 647.282 457.933 642.564 456.785C637.845 455.595 632.426 455 626.305 455H589.261V544.9ZM609.345 497.527V471.322H625.986C628.962 471.322 631.534 471.577 633.701 472.087C635.869 472.597 637.654 473.405 639.057 474.51C640.46 475.573 641.501 476.933 642.181 478.591C642.904 480.206 643.265 482.14 643.265 484.393V484.52C643.265 486.773 642.904 488.728 642.181 490.386C641.501 492.001 640.46 493.34 639.057 494.403C637.654 495.466 635.869 496.252 633.701 496.762C631.534 497.272 628.962 497.527 625.986 497.527H609.345Z" fill="#121212" style="fill:#121212;fill:color(display-p3 0.0706 0.0706 0.0706);fill-opacity:1;"/>
<path d="M724.439 544.9H744.523V471.641H775V455H693.962V471.641H724.439V544.9Z" fill="#121212" style="fill:#121212;fill:color(display-p3 0.0706 0.0706 0.0706);fill-opacity:1;"/>
</g>
<defs>
<clipPath id="clip0_1436_7856">
<rect width="550" height="90.2" fill="white" style="fill:white;fill-opacity:1;" transform="translate(225 455)"/>
</clipPath>
</defs>
</svg>
