<svg width="1000" height="1000" viewBox="0 0 1000 1000" fill="none" xmlns="http://www.w3.org/2000/svg">
<path d="M242.681 473.503C225.357 473.503 208.032 484.007 205 502.499L225.934 505.015C228.1 497.321 235.174 492.587 242.681 492.587C252.21 492.587 258.418 498.505 258.418 507.973V508.714H246.435C224.923 508.714 210.919 518.33 210.919 537.119C210.919 553.393 222.469 562.713 237.05 562.713C246.724 562.713 255.098 557.832 259.717 550.287L261.016 560.939H280.651V507.973C280.651 487.557 265.492 473.503 242.681 473.503ZM258.418 526.467C258.418 535.048 252.643 543.777 244.125 543.777C237.772 543.777 233.297 539.931 233.297 534.308C233.297 527.207 238.639 523.36 247.879 523.36H258.418V526.467Z" fill="#121212" style="fill:#121212;fill:color(display-p3 0.0706 0.0706 0.0706);fill-opacity:1;"/>
<path d="M336.527 473.503C326.277 473.503 317.903 478.829 313.283 488.15L311.839 475.278H292.204V560.939H314.437V512.117C314.437 501.761 320.357 494.067 329.885 494.067C338.548 494.067 344.467 500.134 344.467 509.897V560.939H366.701V505.015C366.701 485.635 354.285 473.503 336.527 473.503Z" fill="#121212" style="fill:#121212;fill:color(display-p3 0.0706 0.0706 0.0706);fill-opacity:1;"/>
<path d="M378.253 560.936H400.486V475.275H378.253V560.936Z" fill="#121212" style="fill:#121212;fill:color(display-p3 0.0706 0.0706 0.0706);fill-opacity:1;"/>
<path d="M506.171 473.203C495.921 473.203 487.258 478.234 481.627 488.59C476.863 478.826 467.623 473.203 456.218 473.203C446.4 473.203 438.316 478.826 433.985 488.147L432.541 475.275H412.906V560.936H435.14V512.114C435.14 501.758 440.625 493.917 449.576 493.917C457.517 493.917 462.859 500.131 462.859 509.894V560.936H485.092V512.114C485.092 501.758 490.578 493.917 499.53 493.917C507.471 493.917 512.812 500.131 512.812 509.894V560.936H535.046V505.012C535.046 485.632 523.063 473.203 506.171 473.203Z" fill="#121212" style="fill:#121212;fill:color(display-p3 0.0706 0.0706 0.0706);fill-opacity:1;"/>
<path d="M579.664 473.503C562.339 473.503 545.015 484.007 541.983 502.499L562.916 505.015C565.081 497.321 572.157 492.587 579.664 492.587C589.193 492.587 595.4 498.505 595.4 507.973V508.714H583.417C561.906 508.714 547.902 518.33 547.902 537.119C547.902 553.393 559.451 562.713 574.033 562.713C583.706 562.713 592.079 557.832 596.699 550.287L597.999 560.939H617.634V507.973C617.634 487.557 602.475 473.503 579.664 473.503ZM595.4 526.467C595.4 535.048 589.626 543.777 581.107 543.777C574.754 543.777 570.279 539.931 570.279 534.308C570.279 527.207 575.621 523.36 584.861 523.36H595.4V526.467Z" fill="#121212" style="fill:#121212;fill:color(display-p3 0.0706 0.0706 0.0706);fill-opacity:1;"/>
<path d="M685.365 484.595C680.169 477.642 672.372 473.501 663.565 473.501C642.342 473.501 627.183 491.106 627.183 518.032C627.183 545.106 642.487 562.711 663.565 562.711C673.094 562.711 681.467 557.829 686.665 549.693L687.964 560.936H707.6V450.273H685.365V484.595ZM667.752 542.147C656.78 542.147 649.561 532.975 649.561 518.032C649.561 503.237 656.78 494.064 667.752 494.064C678.436 494.064 685.365 503.385 685.365 518.032C685.365 532.826 678.436 542.147 667.752 542.147Z" fill="#121212" style="fill:#121212;fill:color(display-p3 0.0706 0.0706 0.0706);fill-opacity:1;"/>
<path d="M774.355 530.758C772.19 538.302 765.837 542.741 757.464 542.741C745.481 542.741 740.29 533.272 739.279 521.585H793.557C794.135 519.957 794.423 515.075 794.423 511.968C794.423 493.327 780.853 473.503 755.732 473.503C731.476 473.503 715.884 493.475 715.884 518.034C715.884 542.741 732.343 562.713 757.464 562.713C775.943 562.713 791.682 552.654 795 534.752L774.355 530.758ZM756.165 491.848C765.26 491.848 772.045 497.766 772.623 506.938H737.973C740.428 497.321 747.502 491.848 756.165 491.848Z" fill="#121212" style="fill:#121212;fill:color(display-p3 0.0706 0.0706 0.0706);fill-opacity:1;"/>
<path d="M423.981 443.032C423.981 429.686 415.773 420 404.467 420C398.845 420 393.013 422.892 389.233 428.416C385.954 423.473 380.791 420 373.899 420C362.678 420 353.888 430.004 353.888 442.775C353.888 456.466 361.93 465.664 373.899 465.664C380.849 465.664 386.44 462.4 389.827 456.871C393.521 461.469 399.066 464.348 405.371 464.348C416.866 464.348 423.981 453.283 423.981 443.032ZM373.899 457.002C366.791 457.002 362.549 451.684 362.549 442.775C362.549 434.861 367.534 428.661 373.899 428.661C381.861 428.661 384.751 437.102 384.751 442.775C384.751 451.684 380.694 457.002 373.899 457.002ZM405.371 455.686C398.091 455.686 393.74 449.252 393.74 443.032C393.74 433.698 399.267 428.661 404.467 428.661C410.857 428.661 415.32 434.57 415.32 443.032C415.32 451.665 409.383 455.686 405.371 455.686Z" fill="#121212" style="fill:#121212;fill:color(display-p3 0.0706 0.0706 0.0706);fill-opacity:1;"/>
</svg>
