<svg width="1000" height="1000" viewBox="0 0 1000 1000" fill="none" xmlns="http://www.w3.org/2000/svg">
<g clip-path="url(#clip0_1436_7994)">
<path d="M776.846 543.789C805.668 543.887 819.643 535.069 819.643 516.649C819.643 493.134 796.352 493.428 779.951 490.685L771.411 489.313C765.879 488.431 765.2 485.688 765.2 484.316C765.2 481.377 768.209 479.025 776.457 479.025C786.065 479.025 790.238 481.964 791.111 486.765H817.314C817.993 462.271 801.204 456 777.137 456C750.158 456 737.057 466.19 737.057 482.748C737.057 504.891 756.66 505.969 771.993 508.419L782.668 510.084C790.044 511.064 790.432 513.808 790.432 515.375C790.432 518.315 786.356 520.862 776.846 520.764C765.782 520.568 761.706 517.727 761.512 512.828H735.213C734.34 534.873 747.635 543.691 776.846 543.789Z" fill="#121212" style="fill:#121212;fill:color(display-p3 0.0706 0.0706 0.0706);fill-opacity:1;"/>
</g>
<g clip-path="url(#clip1_1436_7994)">
<path d="M669.118 458.649H627V540.951H669.118C702.793 540.951 714.341 523.511 714.341 499.8C714.341 475.991 702.793 458.649 669.118 458.649ZM669.118 516.163H656.405L656.502 483.438H669.118C677.755 483.438 684.839 487.455 684.839 499.8C684.839 512.047 677.755 516.163 669.118 516.163Z" fill="#121212" style="fill:#121212;fill:color(display-p3 0.0706 0.0706 0.0706);fill-opacity:1;"/>
</g>
<g clip-path="url(#clip2_1436_7994)">
<path d="M604.496 540.951L590.328 514.301C596.83 509.402 601.488 501.564 601.488 490.786C601.488 468.251 588.484 458.649 565.581 458.649H517.64V540.951H546.948V520.768H565.387L575.674 540.951H604.496ZM546.948 483.242H563.446C569.269 483.242 572.083 486.181 572.083 490.982C572.083 495.783 569.269 498.722 563.446 498.722H546.948V483.242Z" fill="#121212" style="fill:#121212;fill:color(display-p3 0.0706 0.0706 0.0706);fill-opacity:1;"/>
</g>
<g clip-path="url(#clip3_1436_7994)">
<path d="M448.517 557.412C477.048 557.412 495.196 540.069 495.196 513.517C495.196 486.965 477.048 469.623 448.517 469.623C420.083 469.623 401.935 486.965 401.935 513.517C401.935 540.069 420.083 557.412 448.517 557.412ZM448.517 531.839C439.201 531.839 431.049 525.471 431.049 513.517C431.049 501.564 439.201 495.195 448.517 495.195C457.93 495.195 465.985 501.564 465.985 513.517C465.985 525.471 457.93 531.839 448.517 531.839Z" fill="#121212" style="fill:#121212;fill:color(display-p3 0.0706 0.0706 0.0706);fill-opacity:1;"/>
</g>
<g clip-path="url(#clip4_1436_7994)">
<path d="M333.246 530.167C361.777 530.167 379.925 512.824 379.925 486.272C379.925 459.72 361.777 442.377 333.246 442.377C304.811 442.377 286.664 459.72 286.664 486.272C286.664 512.824 304.811 530.167 333.246 530.167ZM333.246 504.594C323.929 504.594 315.777 498.225 315.777 486.272C315.777 474.319 323.929 467.95 333.246 467.95C342.659 467.95 350.714 474.319 350.714 486.272C350.714 498.225 342.659 504.594 333.246 504.594Z" fill="#121212" style="fill:#121212;fill:color(display-p3 0.0706 0.0706 0.0706);fill-opacity:1;"/>
</g>
<g clip-path="url(#clip5_1436_7994)">
<path d="M254.091 498.82V497.057C259.428 493.921 264.281 490.198 264.281 480.694C264.281 470.014 257.973 458.649 232.935 458.649H180.239V540.951H231.091C257.196 540.951 266.319 530.859 266.319 517.73C266.319 508.422 261.661 502.935 254.091 498.82ZM229.635 481.282C235.07 481.282 236.234 484.319 236.234 486.475C236.234 488.435 235.07 491.57 229.635 491.57H209.547V481.282H229.635ZM230.024 518.318H209.547V507.246H230.024C235.458 507.246 236.623 510.676 236.623 512.733C236.623 514.497 235.458 518.318 230.024 518.318Z" fill="#121212" style="fill:#121212;fill:color(display-p3 0.0706 0.0706 0.0706);fill-opacity:1;"/>
</g>
<defs>
<clipPath id="clip0_1436_7994">
<rect width="113.938" height="87.7899" fill="white" style="fill:white;fill-opacity:1;" transform="translate(726.062 456)"/>
</clipPath>
<clipPath id="clip1_1436_7994">
<rect width="113.938" height="87.7899" fill="white" style="fill:white;fill-opacity:1;" transform="translate(612.851 456)"/>
</clipPath>
<clipPath id="clip2_1436_7994">
<rect width="113.938" height="87.7899" fill="white" style="fill:white;fill-opacity:1;" transform="translate(499.636 456)"/>
</clipPath>
<clipPath id="clip3_1436_7994">
<rect width="113.938" height="87.7899" fill="white" style="fill:white;fill-opacity:1;" transform="translate(386.424 456)"/>
</clipPath>
<clipPath id="clip4_1436_7994">
<rect width="113.938" height="87.7899" fill="white" style="fill:white;fill-opacity:1;" transform="translate(273.211 456)"/>
</clipPath>
<clipPath id="clip5_1436_7994">
<rect width="113.938" height="87.7899" fill="white" style="fill:white;fill-opacity:1;" transform="translate(160 456)"/>
</clipPath>
</defs>
</svg>
