<svg width="1000" height="1000" viewBox="0 0 1000 1000" fill="none" xmlns="http://www.w3.org/2000/svg">
<path d="M572.133 585.905C564.1 585.905 556.226 583.153 549.649 577.809C546.486 575.216 542.881 571.421 539.687 565.982C527.228 578.916 513.345 587.517 499.368 585.588C485.485 583.723 476.251 575.817 471.76 562.061C463.096 571.769 452.407 580.529 440.991 584.07C431.567 587.011 422.301 586.189 414.206 581.635C385.966 565.824 399.28 522.183 409.842 493.564C405.509 492.711 398.046 491.857 385.618 491.857C383.753 491.857 381.887 491.92 380.053 492.078C386.757 502.261 388.781 516.112 385.713 531.86C378.978 566.646 350.011 590.49 321.107 585.019C308.205 582.584 297.832 575.722 291.096 565.16C282.273 551.372 279.585 531.449 283.096 506.783C281.135 506.467 279.269 505.55 277.783 504.032C274.083 500.237 274.146 494.197 277.941 490.497C282.02 486.512 285.784 482.654 289.199 478.954C301.595 437.085 324.649 417.131 325.692 416.277C327.906 414.379 330.847 413.621 333.725 414.19C336.571 414.759 339.037 416.562 340.365 419.155C344.571 427.187 341.662 439.172 331.479 455.774C325.186 466.02 316.648 477.152 306.339 488.568C306.117 489.358 305.928 490.117 305.738 490.908C304.599 495.43 303.651 499.826 302.892 504.032C309.343 494.007 321.55 479.777 340.081 476.393C346.437 475.254 352.572 475.413 358.233 476.772C366.866 474.242 376.068 472.661 385.555 472.661C413.921 472.661 427.93 476.583 430.966 485.437C431.694 487.556 431.662 489.864 430.871 491.952C420.531 519.243 408.514 556.463 423.535 564.907C427.045 566.867 430.777 567.152 435.235 565.76C447.758 561.871 461.103 546.439 468.566 534.264C468.598 532.999 468.661 531.734 468.756 530.437C469.389 519.748 475.84 490.339 485.39 481.927C490.07 477.816 495.573 478.543 498.893 481.073C504.87 485.659 503.953 493.691 499.905 507.858C497.027 517.914 493.011 528.666 489.122 536.604C488.647 537.552 488.141 538.533 487.604 539.576C487.635 557.064 492.063 565.254 501.897 566.583C510.025 567.658 521.219 558.74 532.414 545.047C530.042 531.07 530.675 512.159 537.442 486.67C538.264 483.635 557.681 414.474 583.327 414.474C587.565 414.474 591.423 416.53 593.921 420.103C604.578 435.314 588.039 483.002 584.624 492.426C579.659 505.17 568.18 529.077 553.285 549.538C555.942 557.38 559.705 561.333 561.729 562.978C566.852 567.152 573.429 567.911 579.438 565.033C588.767 559.879 600.91 550.708 612.421 539.165C609.67 523.417 611.441 506.688 615.109 493.406C618.999 479.365 639.522 409.573 664.22 414.696C667.983 415.486 671.145 417.89 673.169 421.495C680.285 434.239 672.505 465.736 666.781 484.615C672.031 481.294 678.514 479.018 686.42 479.018C698.689 479.018 709.062 483.888 715.608 492.774C723.893 504 725.474 520.824 719.94 538.912C712.351 563.642 687.811 587.865 659.888 585.715C644.108 584.481 631.268 577.398 622.73 565.223C621.402 563.325 620.2 561.333 619.093 559.278C607.899 569.524 596.831 577.398 588.482 581.952C588.356 582.015 588.261 582.078 588.134 582.141C583.011 584.64 577.54 585.905 572.133 585.905ZM633.609 544.573C634.873 548.146 636.486 551.403 638.415 554.186C643.696 561.744 651.223 565.792 661.374 566.583C678.956 568.037 696.318 550.455 701.599 533.252C705.299 521.203 704.761 510.325 700.176 504.127C697.235 500.174 692.618 498.15 686.42 498.15C671.873 498.15 665.896 515.131 665.643 515.827C663.935 520.824 658.496 523.512 653.5 521.836C652.741 521.583 652.045 521.235 651.412 520.855C646.226 529.299 640.091 537.299 633.609 544.573ZM300.71 525.789C300.583 537.995 302.765 547.925 307.193 554.85C311.145 561.017 316.838 564.717 324.617 566.203C342.832 569.682 362.186 552.257 366.834 528.224C369.269 515.701 367.467 505.644 361.774 499.857C360.668 498.719 359.371 497.77 357.98 497.011C332.365 506.245 313.074 524.555 312.822 524.808C309.533 527.971 304.505 528.382 300.741 525.82C300.741 525.82 300.741 525.82 300.71 525.789ZM656.662 441.354C649.863 452.517 640.471 473.705 633.609 498.466C631.806 505.012 630.731 511.59 630.383 517.946C636.107 509.85 640.914 501.249 644.044 492.489C652.14 469.942 655.682 452.106 656.662 441.354ZM578.11 440.184C571.69 449.387 562.677 467.412 555.973 491.667C553.317 501.723 551.736 510.42 550.977 517.946C557.08 507.447 562.551 496.316 566.725 485.627C573.967 465.767 577.193 449.861 578.11 440.184Z" fill="#121212" style="fill:#121212;fill:color(display-p3 0.0706 0.0706 0.0706);fill-opacity:1;"/>
</svg>
