<svg width="1000" height="1000" viewBox="0 0 1000 1000" fill="none" xmlns="http://www.w3.org/2000/svg">
<g clip-path="url(#clip0_1436_7874)">
<path d="M279.268 509.976H328.862V489.65H279.268V477.049H330.894V452.659H250V548.187H331.301V523.797H278.862V509.976H279.268ZM604.878 449C570.325 449 547.967 469.325 547.967 499.813C547.967 530.301 570.732 550.626 605.285 550.626C639.837 550.626 662.195 530.301 662.195 499.813C662.195 469.325 639.024 449 604.472 449H604.878ZM604.878 524.203C588.618 524.203 580.488 513.228 580.488 499.813C580.488 486.398 588.211 475.423 604.878 475.423C621.545 475.423 629.268 486.398 629.268 499.813C629.268 513.228 621.138 524.203 604.878 524.203ZM373.984 451.846L337.805 547.78H368.293L373.171 533.959H411.382L416.26 547.78H446.748L410.569 451.846H373.984ZM380.894 512.415L392.276 479.894L403.659 512.415H380.894ZM500.406 489.65C484.959 486.805 478.455 484.772 478.455 478.675C478.455 472.984 484.553 469.732 494.715 469.732C506.911 469.732 516.26 475.016 516.26 487.618L540.65 478.675H541.057V477.049C536.585 459.976 518.699 449 493.902 449C467.886 449 449.187 462.008 449.187 479.894C449.187 503.472 472.358 507.13 491.057 510.382C506.098 512.821 512.602 514.447 512.602 520.545C512.602 526.642 506.098 530.301 495.935 530.301C481.707 530.301 471.545 523.39 472.764 510.382L446.341 520.138V521.764C450.406 540.057 469.512 551.033 495.935 551.033C523.577 551.033 542.276 538.837 542.276 520.545C542.276 496.561 519.106 492.902 500.406 489.65ZM747.967 522.984H702.846V452.252H673.577V547.78H747.967V523.39V522.984Z" fill="#121212" style="fill:#121212;fill:color(display-p3 0.0706 0.0706 0.0706);fill-opacity:1;"/>
</g>
<defs>
<clipPath id="clip0_1436_7874">
<rect width="500" height="101.626" fill="white" style="fill:white;fill-opacity:1;" transform="translate(250 449)"/>
</clipPath>
</defs>
</svg>
