<svg width="1000" height="1000" viewBox="0 0 1000 1000" fill="none" xmlns="http://www.w3.org/2000/svg">
<path d="M381.034 402H251.241C242.308 402 235 409.089 235 417.754V461.996V505.517V506.305V543.326V581.53C235 590.195 242.308 597.284 251.241 597.284H302.265C311.198 597.284 318.506 590.195 318.506 581.53V559.08H341.582C350.515 559.08 357.823 551.991 357.823 543.326V521.205H380.899C389.832 521.205 397.14 514.116 397.14 505.451V417.754C397.275 409.089 389.967 402 381.034 402ZM385.027 505.451C385.027 507.552 383.268 509.324 381.034 509.324H357.958V461.996C357.958 453.332 350.65 446.242 341.717 446.242H251.241C249.888 446.242 248.534 446.374 247.248 446.702V417.754C247.248 415.653 249.008 413.881 251.241 413.881H381.034C383.2 413.881 385.027 415.588 385.027 417.754V505.451V505.451ZM345.642 521.205V543.326C345.642 545.427 343.883 547.199 341.65 547.199H318.574V521.271V515.297V509.324V506.305C318.574 497.64 311.265 490.551 302.333 490.551H251.241C249.888 490.551 248.534 490.682 247.248 491.01V461.996C247.248 459.896 249.008 458.124 251.241 458.124H341.65C343.815 458.124 345.642 459.83 345.642 461.996V509.324V515.297V521.205ZM306.325 559.08V581.53C306.325 583.63 304.566 585.403 302.333 585.403H251.241C249.008 585.403 247.248 583.696 247.248 581.53V558.621V552.319V520.746V514.51V506.305C247.248 506.173 247.248 506.042 247.248 505.911C247.451 503.941 249.143 502.432 251.241 502.432H302.265C304.431 502.432 306.258 504.138 306.258 506.305V509.324V515.297V521.271V547.199V553.173V559.08H306.325Z" fill="#121212" style="fill:#121212;fill:color(display-p3 0.0706 0.0706 0.0706);fill-opacity:1;"/>
<path d="M465.285 547.265H480.375V512.607H518.339V499.478H480.375V471.252H518.339V458.124H465.285V547.265Z" fill="#121212" style="fill:#121212;fill:color(display-p3 0.0706 0.0706 0.0706);fill-opacity:1;"/>
<path d="M575.927 495.933C574.032 492.979 571.325 490.616 567.942 488.91C564.558 487.203 560.769 486.35 556.641 486.35C550.415 486.35 545.001 487.728 540.4 490.485C535.798 493.242 532.279 496.984 529.843 501.71C527.407 506.436 526.189 511.687 526.189 517.529C526.189 523.503 527.339 528.82 529.64 533.546C531.941 538.272 535.392 541.948 539.858 544.705C544.392 547.396 549.806 548.775 556.235 548.775C560.092 548.775 563.882 547.921 567.603 546.149C571.325 544.377 574.1 542.079 575.927 539.191V547.199H590.138V487.859H575.927V495.933V495.933ZM571.799 531.052C568.686 534.596 564.22 536.434 558.333 536.434C552.783 536.434 548.453 534.662 545.272 531.183C542.091 527.638 540.467 523.175 540.467 517.595C540.467 512.081 542.091 507.552 545.272 504.007C548.453 500.463 552.783 498.756 558.333 498.756C564.22 498.756 568.686 500.528 571.799 504.073C574.912 507.618 576.468 512.147 576.468 517.595C576.401 523.043 574.844 527.507 571.799 531.052Z" fill="#121212" style="fill:#121212;fill:color(display-p3 0.0706 0.0706 0.0706);fill-opacity:1;"/>
<path d="M654.696 490.288C650.298 487.728 645.155 486.416 639.403 486.416C635.139 486.416 631.079 487.269 627.29 489.041C623.5 490.814 620.658 493.111 618.763 495.999V458.124H604.552V547.265H618.763V539.257C620.658 542.145 623.432 544.443 627.019 546.215C630.605 547.922 634.395 548.841 638.455 548.841C644.343 548.841 649.553 547.528 654.087 544.902C658.621 542.277 662.208 538.601 664.712 533.809C667.283 529.083 668.501 523.634 668.501 517.661C668.501 511.491 667.283 505.977 664.915 501.316C662.546 496.524 659.163 492.848 654.696 490.288ZM649.283 531.118C645.967 534.662 641.703 536.369 636.425 536.369C631.011 536.369 626.613 534.597 623.297 531.118C619.981 527.639 618.289 523.109 618.289 517.464C618.289 511.885 619.981 507.355 623.297 503.811C626.613 500.332 631.011 498.559 636.425 498.559C641.703 498.559 645.967 500.332 649.283 503.811C652.599 507.355 654.29 511.819 654.29 517.398C654.29 523.109 652.599 527.639 649.283 531.118Z" fill="#121212" style="fill:#121212;fill:color(display-p3 0.0706 0.0706 0.0706);fill-opacity:1;"/>
<path d="M693.945 458.124H679.667V547.265H693.945V458.124Z" fill="#121212" style="fill:#121212;fill:color(display-p3 0.0706 0.0706 0.0706);fill-opacity:1;"/>
<path d="M765 514.51C765 508.996 763.782 504.138 761.346 499.872C758.91 495.605 755.458 492.323 751.06 489.96C746.661 487.597 741.518 486.415 735.766 486.415C729.608 486.415 724.262 487.662 719.593 490.222C714.923 492.782 711.337 496.393 708.833 501.119C706.329 505.845 705.043 511.359 705.043 517.595C705.043 527.179 707.818 534.793 713.435 540.372C719.051 545.952 726.631 548.775 736.308 548.775C743.684 548.775 749.977 547.002 755.12 543.523C760.331 539.979 763.376 535.449 764.391 529.935H749.977C748.759 532.233 747.067 533.94 744.834 535.056C742.601 536.171 739.826 536.697 736.308 536.697C731.029 536.697 726.969 535.449 723.991 532.955C721.014 530.461 719.457 526.85 719.254 522.19H764.662C764.865 518.842 765 516.282 765 514.51ZM719.187 511.621C719.254 507.355 720.743 503.941 723.653 501.316C726.563 498.69 730.488 497.377 735.495 497.377C740.368 497.377 744.157 498.624 746.864 501.053C749.503 503.548 750.924 507.027 750.992 511.621H719.187Z" fill="#121212" style="fill:#121212;fill:color(display-p3 0.0706 0.0706 0.0706);fill-opacity:1;"/>
</svg>
