<svg width="1000" height="1000" viewBox="0 0 1000 1000" fill="none" xmlns="http://www.w3.org/2000/svg">
<path d="M217.768 455.871C209.913 455.871 207.634 459.368 207.634 467.038V479.791H228.596L226.501 500.399H207.634V562.917H182.497V500.415H165.554V479.791H182.482V467.392C182.482 446.614 190.86 435.617 214.272 435.617C219.339 435.617 225.269 435.971 228.935 436.48V455.871" fill="#121212" style="fill:#121212;fill:color(display-p3 0.0706 0.0706 0.0706);fill-opacity:1;"/>
<path d="M230.337 518.744C230.337 495.517 241.334 478.051 264.391 478.051C276.959 478.051 284.645 484.52 288.311 492.544V479.791H312.415V562.917H288.311V550.349C284.814 558.374 276.959 564.658 264.391 564.658C241.334 564.658 230.337 547.207 230.337 523.98M255.489 524.335C255.489 536.734 260.032 544.928 271.723 544.928C282.027 544.928 287.263 537.427 287.263 525.551V517.173C287.263 505.297 282.027 497.781 271.723 497.781C260.032 497.781 255.489 505.991 255.489 518.389V524.335Z" fill="#121212" style="fill:#121212;fill:color(display-p3 0.0706 0.0706 0.0706);fill-opacity:1;"/>
<path d="M364.783 478.051C374.564 478.051 383.82 480.145 388.872 483.642L383.281 501.447C379.446 499.522 373.162 497.612 366.524 497.612C352.893 497.612 346.963 505.467 346.963 518.913V523.796C346.963 537.242 352.893 545.097 366.524 545.097C373.162 545.097 379.446 543.172 383.281 541.262L388.872 559.067C383.82 562.563 374.548 564.658 364.783 564.658C335.272 564.658 321.826 548.763 321.826 523.272V519.437C321.826 493.946 335.288 478.051 364.783 478.051Z" fill="#121212" style="fill:#121212;fill:color(display-p3 0.0706 0.0706 0.0706);fill-opacity:1;"/>
<path d="M392.199 524.504V517.173C392.199 493.607 405.646 478.051 433.062 478.051C458.907 478.051 470.243 493.777 470.243 516.818V530.08H417.336C417.86 541.431 422.927 546.499 436.897 546.499C446.323 546.499 456.288 544.573 463.62 541.447L468.148 558.728C461.525 562.224 447.894 564.843 435.849 564.843C404.075 564.827 392.199 548.948 392.199 524.504ZM417.351 513.676H447.74V511.582C447.74 502.494 444.074 495.348 433.077 495.348C421.71 495.348 417.351 502.51 417.351 513.676Z" fill="#121212" style="fill:#121212;fill:color(display-p3 0.0706 0.0706 0.0706);fill-opacity:1;"/>
<path d="M563.504 523.964C563.504 547.191 552.337 564.657 529.28 564.657C516.712 564.657 507.978 558.373 504.482 550.333V562.901H480.732V438.05L505.884 435.786V491.311C509.549 483.98 517.574 478.05 529.28 478.05C552.337 478.05 563.504 495.501 563.504 518.728M538.352 518.204C538.352 506.498 533.808 497.78 521.763 497.78C511.459 497.78 505.868 505.112 505.868 516.987V525.72C505.868 537.595 511.459 544.927 521.763 544.927C533.808 544.927 538.352 536.194 538.352 524.488V518.204Z" fill="#121212" style="fill:#121212;fill:color(display-p3 0.0706 0.0706 0.0706);fill-opacity:1;"/>
<path d="M571.867 523.457V519.267C571.867 495.348 585.483 478.051 613.253 478.051C641.008 478.051 654.639 495.348 654.639 519.267V523.457C654.639 547.392 641.008 564.673 613.253 564.673C585.483 564.658 571.867 547.377 571.867 523.457ZM629.487 517.511C629.487 506.514 624.943 497.781 613.253 497.781C601.547 497.781 597.019 506.514 597.019 517.511V525.197C597.019 536.194 601.547 544.928 613.253 544.928C624.943 544.928 629.487 536.194 629.487 525.197V517.511Z" fill="#121212" style="fill:#121212;fill:color(display-p3 0.0706 0.0706 0.0706);fill-opacity:1;"/>
<path d="M663.018 523.457V519.267C663.018 495.348 676.634 478.051 704.404 478.051C732.159 478.051 745.79 495.348 745.79 519.267V523.457C745.79 547.392 732.159 564.673 704.404 564.673C676.634 564.658 663.018 547.377 663.018 523.457ZM720.638 517.511C720.638 506.514 716.094 497.781 704.404 497.781C692.698 497.781 688.17 506.514 688.17 517.511V525.197C688.17 536.194 692.698 544.928 704.404 544.928C716.094 544.928 720.638 536.194 720.638 525.197V517.511Z" fill="#121212" style="fill:#121212;fill:color(display-p3 0.0706 0.0706 0.0706);fill-opacity:1;"/>
<path d="M780.337 519.436L805.135 479.79H831.858L805.844 520.838L832.905 562.917H806.198L780.337 522.239V562.917H755.201V438.066L780.337 435.786" fill="#121212" style="fill:#121212;fill:color(display-p3 0.0706 0.0706 0.0706);fill-opacity:1;"/>
</svg>
