<svg width="1000" height="1000" viewBox="0 0 1000 1000" fill="none" xmlns="http://www.w3.org/2000/svg">
<path d="M463.595 515.616C463.595 538.519 445.678 555.395 423.69 555.395C401.702 555.395 383.785 538.519 383.785 515.616C383.785 492.552 401.702 475.837 423.69 475.837C445.678 475.837 463.595 492.552 463.595 515.616ZM446.127 515.616C446.127 501.304 435.742 491.512 423.69 491.512C411.638 491.512 401.254 501.304 401.254 515.616C401.254 529.785 411.638 539.72 423.69 539.72C435.742 539.72 446.127 529.767 446.127 515.616ZM549.682 515.616C549.682 538.519 531.765 555.395 509.777 555.395C487.789 555.395 469.872 538.519 469.872 515.616C469.872 492.57 487.789 475.837 509.777 475.837C531.765 475.837 549.682 492.552 549.682 515.616ZM532.214 515.616C532.214 501.304 521.829 491.512 509.777 491.512C497.725 491.512 487.341 501.304 487.341 515.616C487.341 529.785 497.725 539.72 509.777 539.72C521.829 539.72 532.214 529.767 532.214 515.616ZM632.182 478.24V549.656C632.182 579.034 614.857 591.032 594.376 591.032C575.096 591.032 563.492 578.137 559.116 567.591L574.324 561.26C577.033 567.735 583.668 575.375 594.358 575.375C607.468 575.375 615.592 567.286 615.592 552.06V546.338H614.983C611.073 551.163 603.54 555.378 594.035 555.378C574.145 555.378 555.923 538.053 555.923 515.76C555.923 493.305 574.145 475.837 594.035 475.837C603.522 475.837 611.055 480.051 614.983 484.732H615.592V478.258H632.182V478.24ZM616.83 515.76C616.83 501.753 607.486 491.512 595.595 491.512C583.543 491.512 573.446 501.753 573.446 515.76C573.446 529.623 583.543 539.72 595.595 539.72C607.486 539.72 616.83 529.623 616.83 515.76ZM659.533 436.38V552.956H642.495V436.38H659.533ZM725.927 528.709L739.486 537.748C735.11 544.222 724.564 555.378 706.342 555.378C683.745 555.378 666.868 537.909 666.868 515.598C666.868 491.942 683.888 475.819 704.387 475.819C725.03 475.819 735.128 492.247 738.428 501.125L740.239 505.644L687.063 527.668C691.134 535.649 697.465 539.72 706.342 539.72C715.238 539.72 721.408 535.344 725.927 528.709ZM684.193 514.397L719.74 499.636C717.785 494.668 711.902 491.207 704.979 491.207C696.102 491.207 683.745 499.044 684.193 514.397ZM319.292 505.268V488.391H376.163C376.719 491.332 377.006 494.812 377.006 498.578C377.006 511.24 373.545 526.897 362.389 538.053C351.539 549.351 337.675 555.378 319.31 555.378C285.27 555.378 256.646 527.65 256.646 493.61C256.646 459.57 285.27 431.843 319.31 431.843C338.141 431.843 351.557 439.232 361.636 448.863L349.727 460.772C342.499 453.992 332.707 448.719 319.292 448.719C294.434 448.719 274.993 468.753 274.993 493.61C274.993 518.468 294.434 538.501 319.292 538.501C335.415 538.501 344.598 532.026 350.48 526.144C355.251 521.373 358.39 514.558 359.627 505.25L319.292 505.268Z" fill="#121212" style="fill:#121212;fill:color(display-p3 0.0706 0.0706 0.0706);fill-opacity:1;"/>
</svg>
