<svg width="1000" height="1000" viewBox="0 0 1000 1000" fill="none" xmlns="http://www.w3.org/2000/svg">
<path d="M327.305 453.57H339.883V488.609C345.078 480.992 351.953 477.242 360.43 477.242C371.914 477.242 378.437 483.531 378.437 496.227V539.117H365.859V499.469C365.859 490.758 362.617 488.336 356.328 488.336C352.461 488.336 348.711 490.641 345.195 495.211C341.68 499.781 339.883 505.836 339.883 513.336V539.078H327.305V453.57Z" fill="#121212" style="fill:#121212;fill:color(display-p3 0.0706 0.0706 0.0706);fill-opacity:1;"/>
<path d="M442.227 512.164H399.102C399.102 521.695 404.648 528.961 414.219 528.961C420.977 528.961 427.148 525.094 430.156 518.687L440.898 522.906C434.727 534.859 427.617 540.055 414.18 540.055C394.141 540.055 385.781 523.141 385.781 508.648C385.781 494.156 394.102 477.242 414.18 477.242C433.633 477.242 442.227 493.062 442.227 506.734V512.164ZM399.336 501.656H428.945C427.852 494.039 422.773 488.375 414.18 488.375C406.094 488.375 400.781 493.805 399.336 501.656Z" fill="#121212" style="fill:#121212;fill:color(display-p3 0.0706 0.0706 0.0706);fill-opacity:1;"/>
<path d="M540.859 477.242C543.867 477.242 546.914 478.102 550.156 479.664C553.398 481.227 555.703 482.945 557.188 484.977V453.57H569.766V539.117H557.188V532.125C554.883 536.109 547.969 540.133 540.586 540.133C522.813 540.133 513.398 528.531 513.398 508.727C513.437 489.312 522.969 477.242 540.859 477.242ZM526.719 508.648C526.719 514.82 528.164 519.742 531.055 523.492C533.945 527.125 537.695 528.922 542.305 528.922C546.914 528.922 550.625 527.125 553.555 523.492C556.445 519.742 557.891 514.781 557.891 508.648C557.891 502.477 556.445 497.516 553.555 493.922C550.664 490.172 546.914 488.375 542.305 488.375C537.695 488.375 533.984 490.172 531.055 493.922C528.203 497.555 526.719 502.477 526.719 508.648Z" fill="#121212" style="fill:#121212;fill:color(display-p3 0.0706 0.0706 0.0706);fill-opacity:1;"/>
<path d="M617.93 486.891L609.961 493.883C607.07 490.133 603.555 488.336 599.336 488.336C595.938 488.336 593.281 490.523 593.281 494.391C593.281 495.797 593.828 497.164 594.844 498.141C596.914 500.211 598.945 501.148 604.141 503.102C608.359 504.664 610.195 505.289 613.555 507.555C618.398 510.445 620.664 514.078 621.172 520.719C621.289 525.914 619.18 530.914 615.391 534.508C611.523 538.258 606.445 540.055 600.039 540.055C588.437 540.055 580.234 532.555 576.484 523.727L587.109 517.906C590.352 525.289 594.844 528.922 600.508 528.922C605.938 528.922 608.711 526.266 608.711 520.953C608.711 518.883 607.852 517.438 605.586 516.109C604.609 515.445 603.555 514.859 602.461 514.43C600.664 513.57 596.172 512.008 594.258 511.148C585.547 507.516 581.211 501.969 581.211 494.469C581.133 489.82 583.086 485.367 586.523 482.281C590.039 478.883 594.492 477.203 599.922 477.203C607.188 477.242 613.945 480.875 617.93 486.891Z" fill="#121212" style="fill:#121212;fill:color(display-p3 0.0706 0.0706 0.0706);fill-opacity:1;"/>
<path d="M658.242 540.094C651.094 540.094 644.961 536.695 641.914 532.359V563.766H629.336V478.219H641.914V485.211C644.219 481.227 651.094 477.242 658.477 477.242C676.25 477.242 685.664 488.844 685.664 508.648C685.664 527.984 676.133 540.094 658.242 540.094ZM672.383 508.688C672.383 502.516 670.937 497.555 668.047 493.961C665.156 490.211 661.406 488.414 656.797 488.414C652.188 488.414 648.477 490.211 645.547 493.961C642.656 497.594 641.211 502.555 641.211 508.688C641.211 514.82 642.656 519.82 645.547 523.531C648.437 527.164 652.188 528.961 656.797 528.961C661.367 528.961 665.117 527.164 668.047 523.531C670.937 519.781 672.383 514.82 672.383 508.688Z" fill="#121212" style="fill:#121212;fill:color(display-p3 0.0706 0.0706 0.0706);fill-opacity:1;"/>
<path d="M810.195 523.297C805.234 534.547 796.523 540.094 783.867 540.094C774.687 540.094 767.539 537.086 762.617 531.148C757.656 525.094 755.234 517.594 755.234 508.688C755.234 499.781 757.656 492.242 762.617 486.344C767.578 480.289 774.687 477.281 783.867 477.281C796.562 477.281 805.273 482.828 810.195 494.078L798.945 498.922C795.82 491.93 790.742 488.414 783.828 488.414C773.555 488.414 768.477 496.5 768.477 508.727C768.477 520.953 773.555 529.039 783.828 529.039C790.703 529.039 795.781 525.523 798.945 518.531L810.195 523.297Z" fill="#121212" style="fill:#121212;fill:color(display-p3 0.0706 0.0706 0.0706);fill-opacity:1;"/>
<path d="M871.094 512.164H827.969C827.969 521.695 833.516 528.961 843.086 528.961C849.961 528.961 856.172 524.937 859.023 518.687L869.766 522.906C863.594 534.859 856.484 540.055 843.047 540.055C822.969 540.055 814.648 523.141 814.648 508.648C814.648 494.156 822.969 477.242 843.047 477.242C862.5 477.242 871.094 493.062 871.094 506.734V512.164ZM828.203 501.656H857.813C856.719 494.039 851.641 488.375 843.086 488.375C834.961 488.375 829.648 493.805 828.203 501.656Z" fill="#121212" style="fill:#121212;fill:color(display-p3 0.0706 0.0706 0.0706);fill-opacity:1;"/>
<path d="M476.719 477.281C479.727 477.281 482.773 478.141 486.016 479.703C489.258 481.266 491.563 482.984 493.047 485.016V478.18H505.625V539.195H495.117L493.047 532.164C490.742 536.148 483.867 540.133 476.484 540.133C458.711 540.133 449.258 528.531 449.258 508.688C449.258 489.391 458.828 477.281 476.719 477.281ZM462.578 508.727C462.578 514.898 464.023 519.859 466.953 523.609C469.844 527.242 473.594 529.039 478.203 529.039C482.813 529.039 486.563 527.242 489.453 523.609C492.344 519.859 493.789 514.898 493.789 508.727C493.789 502.555 492.344 497.594 489.453 493.961C486.563 490.211 482.813 488.414 478.203 488.414C473.594 488.414 469.844 490.211 466.953 493.961C464.023 497.633 462.578 502.555 462.578 508.727Z" fill="#121212" style="fill:#121212;fill:color(display-p3 0.0706 0.0706 0.0706);fill-opacity:1;"/>
<path d="M719.023 477.281C722.031 477.281 725.078 478.141 728.32 479.703C731.562 481.266 733.867 482.984 735.351 485.016V478.18H747.93V539.195H737.461L735.39 532.164C733.086 536.148 726.211 540.133 718.828 540.133C701.055 540.133 691.601 528.531 691.601 508.688C691.562 489.391 701.133 477.281 719.023 477.281ZM704.883 508.727C704.883 514.898 706.328 519.859 709.258 523.609C712.148 527.242 715.898 529.039 720.508 529.039C725.117 529.039 728.867 527.242 731.758 523.609C734.648 519.859 736.094 514.898 736.094 508.727C736.094 502.555 734.648 497.594 731.758 493.961C728.867 490.211 725.117 488.414 720.508 488.414C715.898 488.414 712.148 490.211 709.258 493.961C706.328 497.633 704.883 502.555 704.883 508.727Z" fill="#121212" style="fill:#121212;fill:color(display-p3 0.0706 0.0706 0.0706);fill-opacity:1;"/>
<path d="M288.32 500.875C290.195 526.735 278.164 541.383 270.937 551.657C259.687 563.532 245.391 579.743 209.141 580.641C178.398 581.852 163.281 568.336 150.586 556.579C134.062 538.415 129.727 527.672 128.906 500.875C128.828 484.469 135.156 468.102 146.211 453.688C161.719 431.813 186.367 424.469 209.141 422.946C233.047 422.008 252.031 434.079 265 447.047C281.602 464.547 286.68 479.586 288.32 500.875Z" fill="#121212" style="fill:#121212;fill:color(display-p3 0.0706 0.0706 0.0706);fill-opacity:1;"/>
</svg>
