<svg width="1000" height="1000" viewBox="0 0 1000 1000" fill="none" xmlns="http://www.w3.org/2000/svg">
<path d="M357.157 410.294C364.726 410.294 370.781 404.193 370.781 396.67C370.781 389.147 364.634 383 357.157 383C349.589 383 343.442 389.101 343.442 396.624C343.442 404.147 349.589 410.294 357.157 410.294Z" fill="#121212" style="fill:#121212;fill:color(display-p3 0.0706 0.0706 0.0706);fill-opacity:1;"/>
<path d="M606.972 441.441C552.615 392.45 523.532 435.982 499.908 436.258C476.284 435.982 447.339 392.359 392.982 441.441C337.202 491.854 317.018 510.524 310 512.68C323.303 524.148 370.138 615.982 499.908 616.074C629.633 615.936 676.606 524.148 690 512.68C682.936 510.524 662.752 491.854 606.972 441.441Z" fill="#121212" style="fill:#121212;fill:color(display-p3 0.0706 0.0706 0.0706);fill-opacity:1;"/>
</svg>
