<svg width="1000" height="1000" viewBox="0 0 1000 1000" fill="none" xmlns="http://www.w3.org/2000/svg">
<g clip-path="url(#clip0_1436_7886)">
<path d="M200 516.229H214.587C215.193 520.908 216.899 524.211 219.761 526.193C222.624 528.174 226.312 529.165 230.771 529.165C235.064 529.165 238.642 528.229 241.56 526.413C244.477 524.596 245.963 521.899 245.963 518.431C245.963 515.624 245.138 513.422 243.431 511.716C241.725 510.064 239.193 508.743 235.725 507.862L220.807 503.789C214.532 502.082 209.853 499.275 206.826 495.422C203.798 491.569 202.257 486.725 202.257 480.89C202.257 477.697 202.917 474.78 204.239 472.082C205.56 469.385 207.431 467.073 209.798 465.147C212.165 463.22 215.083 461.734 218.55 460.633C221.963 459.587 225.817 459.037 230.11 459.037C233.963 459.037 237.596 459.477 240.954 460.413C244.312 461.349 247.229 462.78 249.651 464.706C252.128 466.633 254.165 469.11 255.706 472.138C257.303 475.165 258.239 478.743 258.624 482.816H244.037C243.817 480.67 243.266 478.853 242.44 477.367C241.645 475.974 240.556 474.772 239.248 473.844C237.982 472.963 236.55 472.358 234.899 471.972C233.303 471.642 231.651 471.477 229.89 471.477C225.817 471.477 222.624 472.303 220.312 473.954C218 475.605 216.844 477.862 216.844 480.78C216.844 483.807 217.725 486.119 219.541 487.66C221.358 489.257 224.11 490.523 227.743 491.569L240.734 495.092C247.229 496.853 252.183 499.55 255.486 503.183C258.899 506.706 260.55 511.771 260.55 518.321C260.55 521.954 259.835 525.202 258.404 528.064C256.972 530.927 254.936 533.404 252.349 535.385C249.706 537.367 246.624 538.908 242.991 540.009C239.358 541.055 235.339 541.605 230.991 541.605C226.697 541.605 222.789 541.165 219.156 540.229C215.523 539.293 212.33 537.807 209.633 535.826C206.881 533.789 204.679 531.202 202.972 527.954C201.266 524.706 200.275 520.798 200 516.229" fill="#121212" style="fill:#121212;fill:color(display-p3 0.0706 0.0706 0.0706);fill-opacity:1;"/>
<mask id="mask0_1436_7886" style="mask-type:luminance" maskUnits="userSpaceOnUse" x="200" y="459" width="61" height="83">
<path d="M200 516.229H214.587C215.193 520.908 216.899 524.211 219.761 526.193C222.624 528.174 226.312 529.165 230.771 529.165C235.064 529.165 238.642 528.229 241.56 526.413C244.477 524.596 245.963 521.899 245.963 518.431C245.963 515.624 245.138 513.422 243.431 511.716C241.725 510.064 239.193 508.743 235.725 507.862L220.807 503.789C214.532 502.082 209.853 499.275 206.826 495.422C203.798 491.569 202.257 486.725 202.257 480.89C202.257 477.697 202.917 474.78 204.239 472.082C205.56 469.385 207.431 467.073 209.798 465.147C212.165 463.22 215.083 461.734 218.55 460.633C221.963 459.587 225.817 459.037 230.11 459.037C233.963 459.037 237.596 459.477 240.954 460.413C244.312 461.349 247.229 462.78 249.651 464.706C252.128 466.633 254.165 469.11 255.706 472.138C257.303 475.165 258.239 478.743 258.624 482.816H244.037C243.817 480.67 243.266 478.853 242.44 477.367C241.645 475.974 240.556 474.772 239.248 473.844C237.982 472.963 236.55 472.358 234.899 471.972C233.303 471.642 231.651 471.477 229.89 471.477C225.817 471.477 222.624 472.303 220.312 473.954C218 475.605 216.844 477.862 216.844 480.78C216.844 483.807 217.725 486.119 219.541 487.66C221.358 489.257 224.11 490.523 227.743 491.569L240.734 495.092C247.229 496.853 252.183 499.55 255.486 503.183C258.899 506.706 260.55 511.771 260.55 518.321C260.55 521.954 259.835 525.202 258.404 528.064C256.972 530.927 254.936 533.404 252.349 535.385C249.706 537.367 246.624 538.908 242.991 540.009C239.358 541.055 235.339 541.605 230.991 541.605C226.697 541.605 222.789 541.165 219.156 540.229C215.523 539.293 212.33 537.807 209.633 535.826C206.881 533.789 204.679 531.202 202.972 527.954C201.266 524.706 200.275 520.798 200 516.229" fill="white" style="fill:white;fill-opacity:1;"/>
</mask>
<g mask="url(#mask0_1436_7886)">
<path d="M-1181.65 62.7061H2187.16V4422.34H-1181.65V62.7061Z" fill="#121212" style="fill:#121212;fill:color(display-p3 0.0706 0.0706 0.0706);fill-opacity:1;"/>
<mask id="mask1_1436_7886" style="mask-type:luminance" maskUnits="userSpaceOnUse" x="-1182" y="62" width="3370" height="4361">
<path d="M-1181.65 62.7061H2187.16V4422.34H-1181.65V62.7061Z" fill="white" style="fill:white;fill-opacity:1;"/>
</mask>
<g mask="url(#mask1_1436_7886)">
<path d="M172.477 431.513H288.074V569.128H172.477V431.513Z" fill="#121212" style="fill:#121212;fill:color(display-p3 0.0706 0.0706 0.0706);fill-opacity:1;"/>
</g>
</g>
<path d="M299.083 511.055V459.037H313.89V511.66C313.89 516.89 315.156 520.963 317.743 523.991C320.33 526.963 324.183 528.504 329.358 528.504C334.587 528.504 338.495 527.018 341.138 524.046C343.725 521.073 345.046 516.945 345.046 511.66V459.037H359.633V511.055C359.633 515.734 358.917 519.972 357.541 523.715C356.11 527.459 354.128 530.706 351.541 533.349C348.954 535.991 345.761 538.027 342.073 539.459C338.275 540.89 334.092 541.605 329.413 541.605C324.679 541.605 320.495 540.89 316.752 539.459C313.199 538.11 309.958 536.049 307.229 533.404C304.587 530.816 302.55 527.624 301.174 523.826C299.798 520.082 299.083 515.789 299.083 511.055Z" fill="#121212" style="fill:#121212;fill:color(display-p3 0.0706 0.0706 0.0706);fill-opacity:1;"/>
<mask id="mask2_1436_7886" style="mask-type:luminance" maskUnits="userSpaceOnUse" x="299" y="459" width="61" height="83">
<path d="M299.083 511.055V459.037H313.89V511.66C313.89 516.89 315.156 520.963 317.743 523.991C320.33 526.963 324.183 528.504 329.358 528.504C334.587 528.504 338.495 527.018 341.138 524.046C343.725 521.073 345.046 516.945 345.046 511.66V459.037H359.633V511.055C359.633 515.734 358.917 519.972 357.541 523.715C356.11 527.459 354.128 530.706 351.541 533.349C348.954 535.991 345.761 538.027 342.073 539.459C338.275 540.89 334.092 541.605 329.413 541.605C324.679 541.605 320.495 540.89 316.752 539.459C313.199 538.11 309.958 536.049 307.229 533.404C304.587 530.816 302.55 527.624 301.174 523.826C299.798 520.082 299.083 515.789 299.083 511.055Z" fill="white" style="fill:white;fill-opacity:1;"/>
</mask>
<g mask="url(#mask2_1436_7886)">
<path d="M-1181.65 62.7061H2187.16V4422.34H-1181.65V62.7061Z" fill="#121212" style="fill:#121212;fill:color(display-p3 0.0706 0.0706 0.0706);fill-opacity:1;"/>
<mask id="mask3_1436_7886" style="mask-type:luminance" maskUnits="userSpaceOnUse" x="-1182" y="62" width="3370" height="4361">
<path d="M-1181.65 62.7061H2187.16V4422.34H-1181.65V62.7061Z" fill="white" style="fill:white;fill-opacity:1;"/>
</mask>
<g mask="url(#mask3_1436_7886)">
<path d="M271.56 431.513H387.156V569.128H271.56V431.513Z" fill="#121212" style="fill:#121212;fill:color(display-p3 0.0706 0.0706 0.0706);fill-opacity:1;"/>
</g>
</g>
<path d="M412.752 495.972H430.862C433.395 495.972 435.266 495.312 436.367 494.046C437.468 492.78 438.018 490.853 438.018 488.266V478.743C438.018 476.156 437.523 474.284 436.477 473.183C435.431 472.082 433.56 471.477 430.862 471.477H412.752V495.972V495.972ZM398.165 536.101V459.037H429.266C437.413 459.037 443.468 461.018 447.376 464.982C451.229 468.945 453.211 475.22 453.211 483.752C453.211 491.899 451.009 498.064 446.661 502.193C442.312 506.321 436.532 508.413 429.321 508.413H412.697V536.101H398.165Z" fill="#121212" style="fill:#121212;fill:color(display-p3 0.0706 0.0706 0.0706);fill-opacity:1;"/>
<mask id="mask4_1436_7886" style="mask-type:luminance" maskUnits="userSpaceOnUse" x="398" y="459" width="56" height="78">
<path d="M412.752 495.972H430.862C433.395 495.972 435.266 495.312 436.367 494.046C437.468 492.78 438.018 490.853 438.018 488.266V478.743C438.018 476.156 437.523 474.284 436.477 473.183C435.431 472.082 433.56 471.477 430.862 471.477H412.752V495.972V495.972ZM398.165 536.101V459.037H429.266C437.413 459.037 443.468 461.018 447.376 464.982C451.229 468.945 453.211 475.22 453.211 483.752C453.211 491.899 451.009 498.064 446.661 502.193C442.312 506.321 436.532 508.413 429.321 508.413H412.697V536.101H398.165Z" fill="white" style="fill:white;fill-opacity:1;"/>
</mask>
<g mask="url(#mask4_1436_7886)">
<path d="M-1181.65 62.7061H2187.16V4422.34H-1181.65V62.7061Z" fill="#121212" style="fill:#121212;fill:color(display-p3 0.0706 0.0706 0.0706);fill-opacity:1;"/>
<mask id="mask5_1436_7886" style="mask-type:luminance" maskUnits="userSpaceOnUse" x="-1182" y="62" width="3370" height="4361">
<path d="M-1181.65 62.7061H2187.16V4422.34H-1181.65V62.7061Z" fill="white" style="fill:white;fill-opacity:1;"/>
</mask>
<g mask="url(#mask5_1436_7886)">
<path d="M370.643 431.513H480.734V563.623H370.643V431.513Z" fill="#121212" style="fill:#121212;fill:color(display-p3 0.0706 0.0706 0.0706);fill-opacity:1;"/>
</g>
</g>
<path d="M491.743 536.101V459.037H546.789V471.532H507.046V490.468H541.394V502.908H507.046V523.66H546.789V536.101H491.743Z" fill="#121212" style="fill:#121212;fill:color(display-p3 0.0706 0.0706 0.0706);fill-opacity:1;"/>
<mask id="mask6_1436_7886" style="mask-type:luminance" maskUnits="userSpaceOnUse" x="491" y="459" width="56" height="78">
<path d="M491.743 536.101V459.037H546.789V471.532H507.046V490.468H541.394V502.908H507.046V523.66H546.789V536.101H491.743Z" fill="white" style="fill:white;fill-opacity:1;"/>
</mask>
<g mask="url(#mask6_1436_7886)">
<path d="M-1181.65 62.7061H2187.16V4422.34H-1181.65V62.7061Z" fill="#121212" style="fill:#121212;fill:color(display-p3 0.0706 0.0706 0.0706);fill-opacity:1;"/>
<mask id="mask7_1436_7886" style="mask-type:luminance" maskUnits="userSpaceOnUse" x="-1182" y="62" width="3370" height="4361">
<path d="M-1181.65 62.7061H2187.16V4422.34H-1181.65V62.7061Z" fill="white" style="fill:white;fill-opacity:1;"/>
</mask>
<g mask="url(#mask7_1436_7886)">
<path d="M464.22 431.513H574.312V563.623H464.22V431.513Z" fill="#121212" style="fill:#121212;fill:color(display-p3 0.0706 0.0706 0.0706);fill-opacity:1;"/>
</g>
</g>
<path d="M595.56 494.376H615.431C620.385 494.376 622.807 491.789 622.807 486.67V478.743C622.807 476.156 622.257 474.284 621.156 473.183C620.055 472.082 618.129 471.477 615.376 471.477H595.505V494.376H595.56ZM579.817 536.101V459.037H613.34C622.147 459.037 628.642 460.963 632.826 464.871C637.064 468.78 639.156 474.725 639.156 482.816C639.156 488.927 637.615 493.881 634.477 497.569C631.34 501.257 627.046 503.844 621.486 505.275L640.367 536.101H622.918L605.578 506.486H595.505V536.101H579.817Z" fill="#121212" style="fill:#121212;fill:color(display-p3 0.0706 0.0706 0.0706);fill-opacity:1;"/>
<mask id="mask8_1436_7886" style="mask-type:luminance" maskUnits="userSpaceOnUse" x="579" y="459" width="62" height="78">
<path d="M595.56 494.376H615.431C620.385 494.376 622.807 491.789 622.807 486.67V478.743C622.807 476.156 622.257 474.284 621.156 473.183C620.055 472.082 618.129 471.477 615.376 471.477H595.505V494.376H595.56ZM579.817 536.101V459.037H613.34C622.147 459.037 628.642 460.963 632.826 464.871C637.064 468.78 639.156 474.725 639.156 482.816C639.156 488.927 637.615 493.881 634.477 497.569C631.34 501.257 627.046 503.844 621.486 505.275L640.367 536.101H622.918L605.578 506.486H595.505V536.101H579.817Z" fill="white" style="fill:white;fill-opacity:1;"/>
</mask>
<g mask="url(#mask8_1436_7886)">
<path d="M-1181.65 62.7061H2187.16V4422.34H-1181.65V62.7061Z" fill="#121212" style="fill:#121212;fill:color(display-p3 0.0706 0.0706 0.0706);fill-opacity:1;"/>
<mask id="mask9_1436_7886" style="mask-type:luminance" maskUnits="userSpaceOnUse" x="-1182" y="62" width="3370" height="4361">
<path d="M-1181.65 62.7061H2187.16V4422.34H-1181.65V62.7061Z" fill="white" style="fill:white;fill-opacity:1;"/>
</mask>
<g mask="url(#mask9_1436_7886)">
<path d="M552.294 431.513H667.891V563.623H552.294V431.513Z" fill="#121212" style="fill:#121212;fill:color(display-p3 0.0706 0.0706 0.0706);fill-opacity:1;"/>
</g>
</g>
<path d="M686 508.578L667.89 429.752L682.312 426.119L689.743 458.486L719.853 451L712.422 418.578L726.844 415L744.954 493.826L730.532 497.459L722.771 463.716L692.661 471.257L700.422 505L686 508.578" fill="#121212" style="fill:#121212;fill:color(display-p3 0.0706 0.0706 0.0706);fill-opacity:1;"/>
<mask id="mask10_1436_7886" style="mask-type:luminance" maskUnits="userSpaceOnUse" x="667" y="415" width="78" height="94">
<path d="M686 508.578L667.89 429.752L682.312 426.119L689.743 458.486L719.853 451L712.422 418.578L726.844 415L744.954 493.826L730.532 497.459L722.771 463.716L692.661 471.257L700.422 505L686 508.578" fill="white" style="fill:white;fill-opacity:1;"/>
</mask>
<g mask="url(#mask10_1436_7886)">
<path d="M-1181.65 62.7061H2187.16V4422.34H-1181.65V62.7061Z" fill="#121212" style="fill:#121212;fill:color(display-p3 0.0706 0.0706 0.0706);fill-opacity:1;"/>
<mask id="mask11_1436_7886" style="mask-type:luminance" maskUnits="userSpaceOnUse" x="-1182" y="62" width="3370" height="4361">
<path d="M-1181.65 62.7061H2187.16V4422.34H-1181.65V62.7061Z" fill="white" style="fill:white;fill-opacity:1;"/>
</mask>
<g mask="url(#mask11_1436_7886)">
<path d="M640.368 387.477H772.478V536.1H640.368V387.477Z" fill="#121212" style="fill:#121212;fill:color(display-p3 0.0706 0.0706 0.0706);fill-opacity:1;"/>
</g>
</g>
<path d="M679.945 585.642L788.991 576.119L787.945 563.624L678.899 573.147L679.945 585.642Z" fill="#121212" style="fill:#121212;fill:color(display-p3 0.0706 0.0706 0.0706);fill-opacity:1;"/>
<mask id="mask12_1436_7886" style="mask-type:luminance" maskUnits="userSpaceOnUse" x="678" y="563" width="111" height="23">
<path d="M679.945 585.642L788.991 576.119L787.945 563.624L678.899 573.147L679.945 585.642Z" fill="white" style="fill:white;fill-opacity:1;"/>
</mask>
<g mask="url(#mask12_1436_7886)">
<path d="M-1181.65 62.707H2187.16V4422.34H-1181.65V62.707Z" fill="#121212" style="fill:#121212;fill:color(display-p3 0.0706 0.0706 0.0706);fill-opacity:1;"/>
<mask id="mask13_1436_7886" style="mask-type:luminance" maskUnits="userSpaceOnUse" x="-1182" y="62" width="3370" height="4361">
<path d="M-1181.65 62.707H2187.16V4422.34H-1181.65V62.707Z" fill="white" style="fill:white;fill-opacity:1;"/>
</mask>
<g mask="url(#mask13_1436_7886)">
<path d="M651.377 536.102H816.515V613.166H651.377V536.102Z" fill="#121212" style="fill:#121212;fill:color(display-p3 0.0706 0.0706 0.0706);fill-opacity:1;"/>
</g>
</g>
<path d="M761.743 514.633C762.954 510.229 767.523 507.642 771.927 508.908C776.33 510.119 778.917 514.688 777.651 519.092C776.44 523.495 771.872 526.082 767.468 524.816C765.368 524.211 763.59 522.803 762.519 520.898C761.447 518.992 761.169 516.742 761.743 514.633Z" fill="#121212" style="fill:#121212;fill:color(display-p3 0.0706 0.0706 0.0706);fill-opacity:1;"/>
<mask id="mask14_1436_7886" style="mask-type:luminance" maskUnits="userSpaceOnUse" x="761" y="508" width="17" height="18">
<path d="M761.743 514.633C762.954 510.229 767.523 507.642 771.927 508.908C776.33 510.119 778.917 514.688 777.651 519.092C776.44 523.495 771.872 526.082 767.468 524.816C765.368 524.211 763.59 522.803 762.519 520.898C761.447 518.992 761.169 516.742 761.743 514.633Z" fill="white" style="fill:white;fill-opacity:1;"/>
</mask>
<g mask="url(#mask14_1436_7886)">
<path d="M-1181.65 62.7061H2187.16V4422.34H-1181.65V62.7061Z" fill="#121212" style="fill:#121212;fill:color(display-p3 0.0706 0.0706 0.0706);fill-opacity:1;"/>
<mask id="mask15_1436_7886" style="mask-type:luminance" maskUnits="userSpaceOnUse" x="-1182" y="62" width="3370" height="4361">
<path d="M-1181.65 62.7061H2187.16V4422.34H-1181.65V62.7061Z" fill="white" style="fill:white;fill-opacity:1;"/>
</mask>
<g mask="url(#mask15_1436_7886)">
<path d="M733.946 481.055H805.505V552.614H733.946V481.055Z" fill="#121212" style="fill:#121212;fill:color(display-p3 0.0706 0.0706 0.0706);fill-opacity:1;"/>
</g>
</g>
<path d="M800 457.496L787.945 497.569L772.477 493.606L784.532 453.532L800 457.496Z" fill="#121212" style="fill:#121212;fill:color(display-p3 0.0706 0.0706 0.0706);fill-opacity:1;"/>
<mask id="mask16_1436_7886" style="mask-type:luminance" maskUnits="userSpaceOnUse" x="772" y="453" width="29" height="45">
<path d="M800 457.496L787.945 497.569L772.477 493.606L784.532 453.532L800 457.496Z" fill="white" style="fill:white;fill-opacity:1;"/>
</mask>
<g mask="url(#mask16_1436_7886)">
<path d="M-1181.65 62.707H2187.16V4422.34H-1181.65V62.707Z" fill="#121212" style="fill:#121212;fill:color(display-p3 0.0706 0.0706 0.0706);fill-opacity:1;"/>
<mask id="mask17_1436_7886" style="mask-type:luminance" maskUnits="userSpaceOnUse" x="-1182" y="62" width="3370" height="4361">
<path d="M-1181.65 62.707H2187.16V4422.34H-1181.65V62.707Z" fill="white" style="fill:white;fill-opacity:1;"/>
</mask>
<g mask="url(#mask17_1436_7886)">
<path d="M744.955 426.01H827.524V525.092H744.955V426.01Z" fill="#121212" style="fill:#121212;fill:color(display-p3 0.0706 0.0706 0.0706);fill-opacity:1;"/>
</g>
</g>
</g>
<defs>
<clipPath id="clip0_1436_7886">
<rect width="600" height="170.642" fill="white" style="fill:white;fill-opacity:1;" transform="translate(200 415)"/>
</clipPath>
</defs>
</svg>
