<svg width="1000" height="1000" viewBox="0 0 1000 1000" fill="none" xmlns="http://www.w3.org/2000/svg">
<path d="M431.582 343.169V396.069H421.003V343.169H400.548V334H452.037V343.169H431.582Z" fill="#121212" style="fill:#121212;fill:color(display-p3 0.0706 0.0706 0.0706);fill-opacity:1;"/>
<path d="M524.687 334V396.069H513.401V369.267H483.072V396.069H471.787V334H483.072V359.392H513.401V334H524.687Z" fill="#121212" style="fill:#121212;fill:color(display-p3 0.0706 0.0706 0.0706);fill-opacity:1;"/>
<path d="M597.337 334V343.169H566.302V359.392H592.399V369.267H566.302V386.9H597.337V396.069H555.017V334H597.337Z" fill="#121212" style="fill:#121212;fill:color(display-p3 0.0706 0.0706 0.0706);fill-opacity:1;"/>
<path d="M301.803 530.082L284.875 482.119V530.082H275V468.013H289.812L306.035 515.975L322.257 468.013H337.774V530.082H327.194V482.119L310.972 530.082H301.803Z" fill="#121212" style="fill:#121212;fill:color(display-p3 0.0706 0.0706 0.0706);fill-opacity:1;"/>
<path d="M391.381 466.601C408.309 466.601 420.3 480.002 420.3 499.046C420.3 518.09 408.309 531.491 391.381 531.491C374.453 531.491 362.463 518.09 362.463 499.046C362.463 480.002 374.453 466.601 391.381 466.601ZM391.381 476.476C380.801 476.476 373.043 485.645 373.043 499.046C373.043 512.448 380.801 521.617 391.381 521.617C401.961 521.617 409.72 512.448 409.72 499.046C409.72 485.645 401.961 476.476 391.381 476.476Z" fill="#121212" style="fill:#121212;fill:color(display-p3 0.0706 0.0706 0.0706);fill-opacity:1;"/>
<path d="M446.397 468.013H467.557C487.306 468.013 499.297 480.003 499.297 499.047C499.297 518.091 487.306 530.082 467.557 530.082H446.397V468.013ZM467.557 520.913C480.253 520.913 488.011 512.449 488.011 499.047C488.011 485.646 480.253 477.182 467.557 477.182H457.682V520.913H467.557Z" fill="#121212" style="fill:#121212;fill:color(display-p3 0.0706 0.0706 0.0706);fill-opacity:1;"/>
<path d="M568.417 468.013V477.182H536.677V493.405H563.48V503.279H536.677V520.913H568.417V530.082H526.097V468.013H568.417Z" fill="#121212" style="fill:#121212;fill:color(display-p3 0.0706 0.0706 0.0706);fill-opacity:1;"/>
<path d="M609.327 530.082H598.042V468.013H623.433C637.54 468.013 646.004 474.361 646.004 487.057C646.004 496.931 640.361 503.279 631.192 505.395L647.415 530.787H634.719L619.201 506.101H609.327V530.082ZM622.023 496.226C629.781 496.226 634.013 492.699 634.013 486.351C634.013 480.003 629.781 476.477 622.023 476.477H608.621V495.521H622.023V496.226Z" fill="#121212" style="fill:#121212;fill:color(display-p3 0.0706 0.0706 0.0706);fill-opacity:1;"/>
<path d="M725 530.082H715.125L684.091 484.235V530.082H672.805V468.013H684.796L713.715 511.743V468.013H725V530.082Z" fill="#121212" style="fill:#121212;fill:color(display-p3 0.0706 0.0706 0.0706);fill-opacity:1;"/>
<path d="M375.156 602.025V664.094H363.871V637.292H333.542V664.094H322.962V602.025H333.542V627.417H363.871V602.025H375.156Z" fill="#121212" style="fill:#121212;fill:color(display-p3 0.0706 0.0706 0.0706);fill-opacity:1;"/>
<path d="M430.172 600.614C447.1 600.614 459.091 614.016 459.091 633.059C459.091 652.103 447.1 665.505 430.172 665.505C413.244 665.505 401.253 652.103 401.253 633.059C400.548 614.016 413.244 600.614 430.172 600.614ZM430.172 610.489C419.592 610.489 411.833 619.658 411.833 633.059C411.833 646.461 419.592 655.63 430.172 655.63C440.752 655.63 448.511 646.461 448.511 633.059C447.805 619.658 440.752 610.489 430.172 610.489Z" fill="#121212" style="fill:#121212;fill:color(display-p3 0.0706 0.0706 0.0706);fill-opacity:1;"/>
<path d="M483.778 639.408V602.025H495.063V639.408C495.063 650.693 500.706 655.631 509.17 655.631C517.634 655.631 523.277 650.693 523.277 639.408V602.025H534.562V640.113C534.562 657.747 523.982 666.211 509.17 666.211C494.358 665.505 483.778 657.041 483.778 639.408Z" fill="#121212" style="fill:#121212;fill:color(display-p3 0.0706 0.0706 0.0706);fill-opacity:1;"/>
<path d="M566.303 645.05C570.535 652.103 576.883 655.63 584.641 655.63C591.695 655.63 597.337 652.103 597.337 646.461C597.337 640.113 590.989 639.407 581.115 637.291C571.945 635.175 561.365 632.354 561.365 619.658C561.365 608.373 571.24 600.614 583.936 600.614C594.516 600.614 602.98 605.552 607.212 611.9L598.748 618.953C595.221 613.31 590.284 609.784 583.231 609.784C576.177 609.784 571.945 613.31 571.945 618.248C571.945 623.89 576.883 624.596 585.347 626.712C595.221 628.827 607.917 631.649 607.917 645.05C607.917 657.041 597.337 664.799 583.936 664.799C573.356 664.799 562.776 659.862 557.839 651.398L566.303 645.05Z" fill="#121212" style="fill:#121212;fill:color(display-p3 0.0706 0.0706 0.0706);fill-opacity:1;"/>
<path d="M677.039 602.025V611.195H645.299V627.417H672.101V637.292H645.299V654.925H677.039V664.094H634.719V602.025H677.039Z" fill="#121212" style="fill:#121212;fill:color(display-p3 0.0706 0.0706 0.0706);fill-opacity:1;"/>
</svg>
