<svg width="1000" height="1000" viewBox="0 0 1000 1000" fill="none" xmlns="http://www.w3.org/2000/svg">
<g clip-path="url(#clip0_1436_7835)">
<path d="M464.06 522.201H463.796L433.127 454.33H401.527V459.396H412.195L416.197 466.335V535.667L410.859 543.934H401.527V549H440.859V543.934H429.926L423.664 535.667V480.336H423.928L455.699 548.984H460.089L489.258 479H489.53V538.332L484.06 543.934H477.129V549H523.26V543.934H513.928L508.59 538.332V463.67L511.263 459.396H523.26V454.33H492.459L464.06 522.201Z" fill="#121212" style="fill:#121212;fill:color(display-p3 0.0706 0.0706 0.0706);fill-opacity:1;"/>
<path d="M357.393 459.396H366.857L373.127 467.663V517.663H372.863L324.992 454.33H302.063V458.067L311.527 470.865V535.534L306.057 543.934H299.219V549H334.728V543.934H325.256L318.994 535.534V479.132H319.258L372.234 548.984H380.594V467.663L386.329 459.396H395.256V454.33H357.393V459.396Z" fill="#121212" style="fill:#121212;fill:color(display-p3 0.0706 0.0706 0.0706);fill-opacity:1;"/>
<path d="M257.797 459.396H267.665L273.928 467.663V510.064C273.928 530.461 266.064 542.333 249.53 542.333C231.931 542.333 228.061 531.269 228.061 511.533V464.998L233.392 459.396H242.599V454.33H195V459.396H202.863L208.302 464.998V513.266C208.333 540.196 222.972 550.733 248.333 550.733C273.267 550.733 281.402 531.797 281.402 509.932V467.663L286.841 459.396H295.699V454.33H257.797V459.396Z" fill="#121212" style="fill:#121212;fill:color(display-p3 0.0706 0.0706 0.0706);fill-opacity:1;"/>
<path d="M582.211 449H580.874L565.544 456.716L537.012 535.667L529.545 545.294V549.031H561.014V543.965H549.678L545.792 534.765L551.527 518.231H586.725L593.679 538.301L589.678 543.903H580.478V548.969H622.475V545.294L615.272 538.301L582.211 449ZM553.974 511.533L569.305 467.803L584.371 511.533H553.974Z" fill="#121212" style="fill:#121212;fill:color(display-p3 0.0706 0.0706 0.0706);fill-opacity:1;"/>
<path d="M671.301 454.33H628.753V459.396H636.888L642.086 464.998V538.301L636.888 543.903H628.753V548.969H671.022C696.088 548.969 718.753 528.168 718.753 500.569C718.753 472.97 704.223 454.33 671.301 454.33ZM673.034 540.865C668.893 540.929 664.805 539.92 661.169 537.935V463.133C661.169 463.133 664.503 460.997 670.633 460.997C687.836 460.997 697.696 480.064 697.696 505.286C697.719 528.977 691.55 540.865 673.019 540.865H673.034Z" fill="#121212" style="fill:#121212;fill:color(display-p3 0.0706 0.0706 0.0706);fill-opacity:1;"/>
<path d="M802.599 522.768L783.065 542.333H757.377V460.997H784.767L797.245 473.258H799.639V454.33H724.977V459.396H733.112L738.31 464.998V538.332L733.112 543.934H724.977V549H799.374L805 522.768H802.599Z" fill="#121212" style="fill:#121212;fill:color(display-p3 0.0706 0.0706 0.0706);fill-opacity:1;"/>
<path d="M794.921 484.583L765.477 514.026L770.186 518.735L799.63 489.291L794.921 484.583Z" fill="#121212" style="fill:#121212;fill:color(display-p3 0.0706 0.0706 0.0706);fill-opacity:1;"/>
</g>
<defs>
<clipPath id="clip0_1436_7835">
<rect width="610" height="101.733" fill="white" style="fill:white;fill-opacity:1;" transform="translate(195 449)"/>
</clipPath>
</defs>
</svg>
