<svg width="1000" height="1000" viewBox="0 0 1000 1000" fill="none" xmlns="http://www.w3.org/2000/svg">
<g clip-path="url(#clip0_1436_8015)">
<mask id="mask0_1436_8015" style="mask-type:luminance" maskUnits="userSpaceOnUse" x="288" y="379" width="424" height="243">
<path d="M711.6 379H288.049V621.717H711.6V379Z" fill="white" style="fill:white;fill-opacity:1;"/>
</mask>
<g mask="url(#mask0_1436_8015)">
<path d="M709.87 616.47C709.481 616.406 708.196 616.265 706.183 616.103C696.297 615.312 685.556 613.278 679.151 596.696C677.117 591.379 596.159 381.577 595.63 380.179C595.022 378.576 593.511 378.618 592.967 380.236C592.515 381.648 571.075 445.205 571.075 445.205L626.907 598.843C627.888 601.668 628.842 604.493 628.842 606.689C628.767 608.251 628.267 609.762 627.396 611.06C626.524 612.358 625.315 613.394 623.898 614.055C621.434 615.22 616.738 615.841 613.122 616.173C611.985 616.272 611.003 616.371 609.986 616.519C609.522 616.594 609.102 616.84 608.809 617.208C608.516 617.577 608.372 618.041 608.405 618.511C608.403 618.759 608.453 619.004 608.551 619.232C608.649 619.459 608.793 619.664 608.974 619.834C609.155 620.003 609.369 620.133 609.603 620.215C609.837 620.297 610.085 620.33 610.332 620.311H710.046C710.491 620.295 710.913 620.114 711.232 619.803C711.55 619.492 711.742 619.075 711.769 618.631C711.796 618.368 711.768 618.103 711.688 617.852C711.607 617.601 711.477 617.369 711.303 617.171C711.13 616.972 710.917 616.811 710.679 616.698C710.441 616.585 710.183 616.521 709.919 616.512" fill="#121212" style="fill:#121212;fill:color(display-p3 0.0706 0.0706 0.0706);fill-opacity:1;"/>
<path d="M484.935 389.402C487.865 387.679 491.707 386.853 499.482 386.436C500.584 386.373 501.438 385.765 501.438 384.657C501.447 384.421 501.408 384.187 501.324 383.967C501.239 383.747 501.112 383.546 500.948 383.377C500.785 383.207 500.589 383.073 500.372 382.981C500.155 382.889 499.922 382.842 499.687 382.842H452.542C451.433 382.842 450.162 383.174 450.162 384.649C450.162 385.398 450.473 386.238 451.92 386.436C453.015 386.577 455.522 386.733 458.318 386.93C465.063 387.404 467.654 388.103 469.617 390.892C471.439 393.512 470.458 398.166 468.41 403.695C466.362 409.225 412.098 548.344 412.098 548.344H411.88C411.23 546.303 368.237 411.139 366.373 405.298C364.508 399.458 363.76 395.355 364.72 393.103C366.479 388.985 369.974 387.538 378.696 386.938C379.889 386.853 380.447 386.81 381.521 386.712C381.788 386.687 382.046 386.603 382.277 386.466C382.507 386.328 382.704 386.141 382.852 385.917C383.001 385.693 383.097 385.439 383.134 385.174C383.171 384.908 383.148 384.637 383.067 384.381C382.813 383.096 382.064 382.828 380.659 382.828H289.85C289.38 382.818 288.925 382.991 288.581 383.312C288.237 383.632 288.031 384.074 288.007 384.544C287.951 384.884 288.009 385.234 288.172 385.538C288.336 385.842 288.596 386.084 288.911 386.224C289.448 386.464 291.03 386.676 294.031 386.888C300.676 387.354 302.823 387.919 305.28 389.091C310.266 391.478 313.677 397.862 315.379 402.961C317.081 408.06 387.615 620.107 387.841 620.756C387.929 620.977 388.081 621.165 388.277 621.298C388.474 621.431 388.705 621.503 388.943 621.503C389.18 621.503 389.411 621.431 389.608 621.298C389.804 621.165 389.956 620.977 390.044 620.756C390.482 619.732 477.908 400.285 479.165 397.22C480.246 394.6 481.99 391.118 484.935 389.381" fill="#121212" style="fill:#121212;fill:color(display-p3 0.0706 0.0706 0.0706);fill-opacity:1;"/>
</g>
<path d="M592.374 601.435C590.446 600.835 589.246 602.036 587.833 605.376C586.195 609.246 582.664 610.319 579.267 610.319C572.912 610.319 566.514 603.038 561.761 595.63C561.5 595.228 558.802 590.991 554.748 584.635C565.066 570.299 570.948 553.513 573.646 542.433C574.571 538.613 575.948 532.836 578.003 530.428C580.828 527.109 583.963 526.149 588.455 525.697C589.644 525.629 590.825 525.462 591.986 525.195C592.391 525.07 592.737 524.802 592.96 524.441C593.184 524.08 593.269 523.651 593.2 523.232C593.173 522.808 592.981 522.411 592.666 522.127C592.351 521.842 591.937 521.691 591.513 521.707H552.27C552.019 521.682 551.765 521.713 551.527 521.797C551.289 521.881 551.072 522.015 550.891 522.191C550.71 522.367 550.57 522.581 550.48 522.817C550.39 523.052 550.353 523.305 550.37 523.557C550.371 523.977 550.526 524.383 550.806 524.697C551.086 525.01 551.471 525.21 551.888 525.259C552.708 525.421 553.539 525.52 554.374 525.555C559.318 525.817 562.898 526.367 565.144 527.865C568.759 530.273 568.406 534.03 567.721 539.164C566.189 550.604 560.377 567.482 551.924 580.158L508.649 512.237C508.649 512.237 520.202 506.234 528.04 501.729C535.696 497.329 547.404 488.48 547.404 474.018C547.404 465.445 542.461 458.778 535.773 454.336C528.867 449.774 518.514 446.116 506.77 446.116C492.131 446.116 476.475 451.497 467.993 464.95C459.801 477.944 461.92 496.919 471.524 512.787C474.13 517.074 476.99 521.403 476.99 521.403C473.565 522.632 469.314 524.475 465.726 526.106C446.243 535.152 429.711 552.037 429.711 575.222C429.711 601.004 448.891 621.738 484.236 621.738C501.38 621.889 518.127 616.578 532.052 606.576C537.885 614.493 548.689 620.432 564.211 620.432C578.935 620.432 590.602 611.859 593.617 604.839C594.133 603.639 593.822 601.908 592.374 601.456V601.435ZM490.274 456.709C493.317 452.338 497.872 450.53 503.974 450.53C512.264 450.53 522.405 458.298 522.405 477.803C522.405 490.083 516.198 501.884 506.219 508.451C506.219 508.451 497.611 495.154 492.682 485.853C488.36 477.725 484.384 465.155 490.274 456.688V456.709ZM460.126 561.38C460.126 549.735 464.208 534.545 479.109 524.997L479.158 525.068L479.257 525.223C511.742 575.363 513.564 578.237 529.396 602.487C522.447 607.099 514.75 609.867 507.045 609.867C480.726 609.867 460.155 585.447 460.155 561.38" fill="#121212" style="fill:#121212;fill:color(display-p3 0.0706 0.0706 0.0706);fill-opacity:1;"/>
</g>
<defs>
<clipPath id="clip0_1436_8015">
<rect width="423.72" height="242.717" fill="white" style="fill:white;fill-opacity:1;" transform="translate(288 379)"/>
</clipPath>
</defs>
</svg>
