<svg width="1000" height="1000" viewBox="0 0 1000 1000" fill="none" xmlns="http://www.w3.org/2000/svg">
<path d="M333.537 446.445H363.284L323.757 554.024H288.305L250 446.445H283.007L307.457 524.685H307.865L333.537 446.445ZM368.174 554.024V446.445H397.922V554.024H368.174ZM436.634 467.227H403.627V446.445H500.204V467.227H466.381V554.024H436.634V467.227ZM562.143 477.822C562.143 473.747 560.921 470.487 558.476 468.45C555.623 466.005 551.549 464.782 546.659 464.782C539.731 464.782 533.619 469.265 533.619 474.562C533.619 482.305 542.991 485.157 551.141 487.195C569.071 491.677 595.558 493.715 595.558 522.647C595.558 545.467 573.146 556.062 548.289 556.062C523.024 556.062 501.019 548.727 500.611 519.387H530.359C530.359 529.575 537.694 535.28 548.289 535.28C555.216 535.28 563.773 531.612 563.773 524.685C563.773 510.015 541.769 513.275 518.134 502.68C507.131 497.79 501.834 488.01 501.834 476.6C503.056 450.927 525.469 444 547.881 444C570.293 444 593.113 451.742 591.076 477.822H562.143ZM674.613 554.024C668.908 555.654 662.795 556.062 655.868 556.062C620.008 556.062 600.041 535.28 600.041 499.827C600.041 464.375 620.008 444 655.868 444C662.795 444 668.908 444.815 674.613 446.037H750V466.82H706.398V489.232H745.518V510.015H706.398V532.835H749.593V554.024H674.613ZM655.868 464.782C635.493 464.782 631.418 483.527 631.418 500.642C631.418 516.535 635.493 535.28 655.868 535.28C676.243 535.28 680.318 516.535 680.318 500.642C680.318 483.935 676.243 464.782 655.868 464.782Z" fill="#121212" style="fill:#121212;fill:color(display-p3 0.0706 0.0706 0.0706);fill-opacity:1;"/>
</svg>
